<?xml version="1.0" encoding="utf-8"?>
<!-- Generator: Adobe Illustrator 21.1.0, SVG Export Plug-In . SVG Version: 6.00 Build 0)  -->
<svg version="1.1" id="Layer_1" xmlns="http://www.w3.org/2000/svg" xmlns:xlink="http://www.w3.org/1999/xlink" x="0px" y="0px"
	 viewBox="0 0 468.4 142.9" style="enable-background:new 0 0 468.4 142.9;" xml:space="preserve">
<style type="text/css">
	.st0{fill:#EE3124;}
	.st1{fill:#000006;}
	.st2{fill:#231F20;}
</style>
<path class="st0" d="M283.1,35c9.4,0,17-7.8,17-17.5c0-9.7-7.6-17.5-17-17.5c-9.4,0-17,7.8-17,17.5C266.1,27.2,273.7,35,283.1,35"/>
<path class="st1" d="M66.2,125.4h-0.6c-6.8,11.2-17.9,16.1-30.7,16.1C17.1,141.5,0,131.4,0,111.7c0-32.3,36.3-34.6,60.2-34.6h6v-2.7
	c0-12.2-9.2-18.6-21.9-18.6c-10,0-19.2,4.1-25.5,10.4L6.2,53.1C16.8,42,31.7,37.2,46.9,37.2c40.9,0,40.9,30.6,40.9,44.7v57.1H66.2
	V125.4z M64.8,94.5h-5c-13.2,0-35.9,1-35.9,15.3c0,9.1,9,13,16.8,13c16.4,0,24.1-8.9,24.1-22.8V94.5z M94.3,39.7H117v15.9h0.4
	c4.4-9.9,13.4-18.4,29.3-18.4c25.7,0,34.9,18.8,34.9,39.1v62.7h-23.9V88.8c0-11-0.8-29.2-17.5-29.2c-15.8,0-21.9,12-21.9,25.3v54.2
	H94.3V39.7z M244.6,67.2c-4.6-6.6-10.6-10.1-18.8-10.1c-6.4,0-14,3.1-14,10.6c0,17.8,51.7,3.3,51.7,42c0,23.6-21.7,31.9-41.3,31.9
	c-14.8,0-27.5-3.9-37.3-15.3l15.9-15.5c6.2,7,12.6,12.2,22.7,12.2c7,0,16-3.5,16-11.4c0-20.5-51.7-4.4-51.7-42.2
	c0-22.1,19.2-32.1,38.5-32.1c12.8,0,26.3,4.1,34.1,15.1L244.6,67.2z M307.8,39.7h24v15.7h0.4c5.2-11.4,15.8-18.2,28.3-18.2
	c3,0,5.8,0.6,8.6,1.4v24c-4-1-7.8-1.9-11.6-1.9c-22.5,0-25.7,19.7-25.7,25v53.2h-24V39.7z M431.1,125.4h-0.6
	c-6.8,11.2-18,16.1-30.7,16.1c-17.7,0-34.9-10.2-34.9-29.8c0-32.3,36.3-34.6,60.2-34.6h6v-2.7c0-12.2-9.2-18.6-21.9-18.6
	c-10,0-19.1,4.1-25.5,10.4L371,53.1c10.6-11.2,25.5-15.9,40.7-15.9c40.9,0,40.9,30.6,40.9,44.7v57.1h-21.5V125.4z M429.7,94.5h-5
	c-13.2,0-35.9,1-35.9,15.3c0,9.1,9,13,16.8,13c16.4,0,24.1-8.9,24.1-22.8V94.5z"/>
<polygon class="st0" points="283.1,44.3 283.1,44.3 263.5,40 283.1,142.9 283.1,142.9 302.7,40 "/>
<g>
	<path class="st2" d="M468,131.8c-0.3-0.6-0.7-1.2-1.1-1.7c-0.5-0.5-1-0.9-1.7-1.1c-0.6-0.3-1.3-0.4-2-0.4c-0.7,0-1.4,0.1-2,0.4
		c-0.6,0.3-1.2,0.7-1.7,1.1c-0.5,0.5-0.9,1-1.1,1.7c-0.3,0.6-0.4,1.3-0.4,2c0,0.7,0.1,1.4,0.4,2c0.3,0.6,0.7,1.2,1.1,1.7
		c0.5,0.5,1,0.9,1.7,1.1c0.6,0.3,1.3,0.4,2,0.4c0.7,0,1.4-0.1,2-0.4c0.6-0.3,1.2-0.7,1.7-1.1c0.5-0.5,0.9-1,1.1-1.7
		c0.3-0.6,0.4-1.3,0.4-2C468.4,133.1,468.3,132.4,468,131.8z M467.4,135.6c-0.2,0.6-0.6,1-1,1.5c-0.4,0.4-0.9,0.7-1.5,1
		c-0.6,0.2-1.2,0.4-1.8,0.4c-0.6,0-1.2-0.1-1.8-0.4c-0.6-0.2-1-0.6-1.5-1c-0.4-0.4-0.7-0.9-1-1.5c-0.2-0.6-0.4-1.2-0.4-1.8
		c0-0.6,0.1-1.2,0.4-1.8c0.2-0.6,0.6-1,1-1.5c0.4-0.4,0.9-0.7,1.5-1c0.6-0.2,1.2-0.4,1.8-0.4c0.6,0,1.2,0.1,1.8,0.4
		c0.6,0.2,1,0.6,1.5,1c0.4,0.4,0.7,0.9,1,1.5c0.2,0.6,0.4,1.2,0.4,1.8C467.8,134.4,467.7,135,467.4,135.6z"/>
	<path class="st2" d="M464.1,134.2c0.4,0,0.7-0.2,1-0.4c0.3-0.3,0.4-0.6,0.4-1.1c0-0.6-0.2-1-0.5-1.3c-0.3-0.3-0.8-0.4-1.5-0.4h-2.2
		v5.8h1.1v-2.4h0.8l1.4,2.4h1.1L464.1,134.2z M463.6,133.4c-0.2,0-0.3,0-0.5,0h-0.8v-1.6h0.8c0.2,0,0.3,0,0.5,0c0.2,0,0.3,0,0.4,0.1
		c0.1,0.1,0.2,0.1,0.3,0.2c0.1,0.1,0.1,0.3,0.1,0.4c0,0.2,0,0.3-0.1,0.4c-0.1,0.1-0.2,0.2-0.3,0.2
		C463.9,133.3,463.7,133.4,463.6,133.4z"/>
</g>
</svg>
