<?xml version="1.0" encoding="utf-8"?>
<!-- Generator: Adobe Illustrator 21.1.0, SVG Export Plug-In . SVG Version: 6.00 Build 0)  -->
<svg version="1.1" id="Layer_1" xmlns="http://www.w3.org/2000/svg" xmlns:xlink="http://www.w3.org/1999/xlink" x="0px" y="0px"
	 viewBox="0 0 900.7 142.9" style="enable-background:new 0 0 900.7 142.9;" xml:space="preserve">
<style type="text/css">
	.st0{fill:#EE3124;}
	.st1{fill:#FFFFFF;}
	.st2{fill:#231F20;}
	.st3{font-family:'MuseoSans-700';}
	.st4{font-size:197px;}
	.st5{letter-spacing:-19;}
</style>
<path class="st0" d="M701.2,37c9.4,0,17-7.8,17-17.5S710.6,2,701.2,2c-9.4,0-17,7.8-17,17.5S691.8,37,701.2,37"/>
<path class="st1" d="M484.4,127.4h-0.6c-6.8,11.2-17.9,16.1-30.7,16.1c-17.8,0-34.9-10.2-34.9-29.8c0-32.3,36.3-34.6,60.2-34.6h6
	v-2.7c0-12.2-9.2-18.6-21.9-18.6c-10,0-19.2,4.1-25.5,10.4l-12.6-13.1C434.9,44,449.9,39.2,465,39.2c40.9,0,40.9,30.6,40.9,44.7V141
	h-21.5V127.4z M483,96.5h-5c-13.2,0-35.9,1-35.9,15.3c0,9.1,9,13,16.8,13c16.4,0,24.1-8.9,24.1-22.8V96.5L483,96.5z M512.4,41.7
	h22.7v15.9h0.4c4.4-9.9,13.4-18.4,29.3-18.4c25.7,0,34.9,18.8,34.9,39.1V141h-23.9V90.8c0-11-0.8-29.2-17.5-29.2
	c-15.8,0-21.9,12-21.9,25.3v54.2h-23.9L512.4,41.7L512.4,41.7z M662.8,69.2c-4.6-6.6-10.6-10.1-18.8-10.1c-6.4,0-14,3.1-14,10.6
	c0,17.8,51.7,3.3,51.7,42c0,23.6-21.7,31.9-41.3,31.9c-14.8,0-27.5-3.9-37.3-15.3l15.9-15.5c6.2,7,12.6,12.2,22.7,12.2
	c7,0,16-3.5,16-11.4c0-20.5-51.7-4.4-51.7-42.2c0-22.1,19.2-32.1,38.5-32.1c12.8,0,26.3,4.1,34.1,15.1L662.8,69.2z M725.9,41.7h24
	v15.7h0.4c5.2-11.4,15.8-18.2,28.3-18.2c3,0,5.8,0.6,8.6,1.4v24c-4-1-7.8-1.9-11.6-1.9c-22.5,0-25.7,19.7-25.7,25v53.2h-24V41.7
	L725.9,41.7z M849.2,127.4h-0.6c-6.8,11.2-18,16.1-30.7,16.1c-17.7,0-34.9-10.2-34.9-29.8c0-32.3,36.3-34.6,60.2-34.6h6v-2.7
	c0-12.2-9.2-18.6-21.9-18.6c-10,0-19.1,4.1-25.5,10.4l-12.6-13.1c10.6-11.2,25.5-15.9,40.7-15.9c40.9,0,40.9,30.6,40.9,44.7V141
	h-21.5v-13.6H849.2z M847.8,96.5h-5c-13.2,0-35.9,1-35.9,15.3c0,9.1,9,13,16.8,13c16.4,0,24.1-8.9,24.1-22.8L847.8,96.5L847.8,96.5z
	"/>
<polygon class="st0" points="701.2,46.3 701.2,46.3 681.6,42 701.2,144.9 701.2,144.9 720.8,42 "/>
<g>
	<path class="st2" d="M680.2,133.8c-0.3-0.6-0.7-1.2-1.1-1.7c-0.5-0.5-1-0.9-1.7-1.1c-0.6-0.3-1.3-0.4-2-0.4s-1.4,0.1-2,0.4
		c-0.6,0.3-1.2,0.7-1.7,1.1c-0.5,0.5-0.9,1-1.1,1.7c-0.3,0.6-0.4,1.3-0.4,2s0.1,1.4,0.4,2c0.3,0.6,0.7,1.2,1.1,1.7
		c0.5,0.5,1,0.9,1.7,1.1c0.6,0.3,1.3,0.4,2,0.4s1.4-0.1,2-0.4c0.6-0.3,1.2-0.7,1.7-1.1c0.5-0.5,0.9-1,1.1-1.7c0.3-0.6,0.4-1.3,0.4-2
		C680.6,135.1,680.5,134.4,680.2,133.8z M679.6,137.6c-0.2,0.6-0.6,1-1,1.5c-0.4,0.4-0.9,0.7-1.5,1c-0.6,0.2-1.2,0.4-1.8,0.4
		s-1.2-0.1-1.8-0.4c-0.6-0.2-1-0.6-1.5-1c-0.4-0.4-0.7-0.9-1-1.5c-0.2-0.6-0.4-1.2-0.4-1.8s0.1-1.2,0.4-1.8c0.2-0.6,0.6-1,1-1.5
		c0.4-0.4,0.9-0.7,1.5-1c0.6-0.2,1.2-0.4,1.8-0.4s1.2,0.1,1.8,0.4c0.6,0.2,1,0.6,1.5,1c0.4,0.4,0.7,0.9,1,1.5
		c0.2,0.6,0.4,1.2,0.4,1.8C679.9,136.4,679.8,137,679.6,137.6z"/>
	<path class="st2" d="M676.3,136.2c0.4,0,0.7-0.2,1-0.4c0.3-0.3,0.4-0.6,0.4-1.1c0-0.6-0.2-1-0.5-1.3s-0.8-0.4-1.5-0.4h-2.2v5.8h1.1
		v-2.4h0.8l1.4,2.4h1.1L676.3,136.2z M675.7,135.4c-0.2,0-0.3,0-0.5,0h-0.8v-1.6h0.8c0.2,0,0.3,0,0.5,0s0.3,0,0.4,0.1
		c0.1,0.1,0.2,0.1,0.3,0.2c0.1,0.1,0.1,0.3,0.1,0.4c0,0.2,0,0.3-0.1,0.4c-0.1,0.1-0.2,0.2-0.3,0.2
		C676,135.3,675.9,135.4,675.7,135.4z"/>
</g>
<text transform="matrix(1 0 0 1 30.0239 140.7803)" class="st1 st3 st4 st5">kanb</text>
</svg>
